# Blender v2.81 (sub 16) OBJ File: ''
# www.blender.org
mtllib untitled.mtl
o Cube_Cube.001
v -0.749522 -1.000000 0.749522
v -0.749522 -0.749522 1.000000
v -1.000000 -0.749522 0.749522
v -0.749522 -0.980933 0.845376
v -0.749522 -0.926637 0.926637
v -0.845376 -0.980933 0.749522
v -0.847778 -0.957922 0.847778
v -0.842792 -0.913899 0.913899
v -0.894135 -0.894135 0.894135
v -0.845376 -0.749522 0.980933
v -0.926637 -0.749522 0.926637
v -0.749522 -0.845376 0.980933
v -0.847778 -0.847778 0.957922
v -0.913899 -0.842792 0.913899
v -0.980933 -0.845376 0.749522
v -0.926637 -0.926637 0.749522
v -0.980933 -0.749522 0.845376
v -0.957922 -0.847778 0.847778
v -0.913899 -0.913899 0.842792
v -0.749522 0.749522 1.000000
v -0.749522 1.000000 0.749522
v -1.000000 0.749522 0.749522
v -0.749522 0.845376 0.980933
v -0.749522 0.926637 0.926637
v -0.845376 0.749522 0.980933
v -0.847778 0.847778 0.957922
v -0.842792 0.913899 0.913899
v -0.894135 0.894135 0.894135
v -0.845376 0.980933 0.749522
v -0.926637 0.926637 0.749522
v -0.749522 0.980933 0.845376
v -0.847778 0.957922 0.847778
v -0.913899 0.913899 0.842792
v -0.980933 0.749522 0.845376
v -0.926637 0.749522 0.926637
v -0.980933 0.845376 0.749522
v -0.957922 0.847778 0.847778
v -0.913899 0.842792 0.913899
v -0.749522 -1.000000 -0.749522
v -1.000000 -0.749522 -0.749522
v -0.749522 -0.749522 -1.000000
v -0.845376 -0.980933 -0.749522
v -0.926637 -0.926637 -0.749522
v -0.749522 -0.980933 -0.845376
v -0.847778 -0.957922 -0.847778
v -0.913899 -0.913899 -0.842792
v -0.894135 -0.894135 -0.894135
v -0.980933 -0.749522 -0.845376
v -0.926637 -0.749522 -0.926637
v -0.980933 -0.845376 -0.749522
v -0.957922 -0.847778 -0.847778
v -0.913899 -0.842792 -0.913899
v -0.749522 -0.845376 -0.980933
v -0.749522 -0.926637 -0.926637
v -0.845376 -0.749522 -0.980933
v -0.847778 -0.847778 -0.957922
v -0.842792 -0.913899 -0.913899
v -0.749522 1.000000 -0.749522
v -0.749522 0.749522 -1.000000
v -1.000000 0.749522 -0.749522
v -0.749522 0.980933 -0.845376
v -0.749522 0.926637 -0.926637
v -0.845376 0.980933 -0.749522
v -0.847778 0.957922 -0.847778
v -0.842792 0.913899 -0.913899
v -0.894135 0.894135 -0.894135
v -0.845376 0.749522 -0.980933
v -0.926637 0.749522 -0.926637
v -0.749522 0.845376 -0.980933
v -0.847778 0.847778 -0.957922
v -0.913899 0.842792 -0.913899
v -0.980933 0.845376 -0.749522
v -0.926637 0.926637 -0.749522
v -0.980933 0.749522 -0.845376
v -0.957922 0.847778 -0.847778
v -0.913899 0.913899 -0.842792
v 0.749522 -1.000000 0.749522
v 1.000000 -0.749522 0.749522
v 0.749522 -0.749522 1.000000
v 0.845376 -0.980933 0.749522
v 0.926637 -0.926637 0.749522
v 0.749522 -0.980933 0.845376
v 0.847778 -0.957922 0.847778
v 0.913899 -0.913899 0.842792
v 0.894135 -0.894135 0.894135
v 0.980933 -0.749522 0.845376
v 0.926637 -0.749522 0.926637
v 0.980933 -0.845376 0.749522
v 0.957922 -0.847778 0.847778
v 0.913899 -0.842792 0.913899
v 0.749522 -0.845376 0.980933
v 0.749522 -0.926637 0.926637
v 0.845376 -0.749522 0.980933
v 0.847778 -0.847778 0.957922
v 0.842792 -0.913899 0.913899
v 0.749522 1.000000 0.749522
v 0.749522 0.749522 1.000000
v 1.000000 0.749522 0.749522
v 0.749522 0.980933 0.845376
v 0.749522 0.926637 0.926637
v 0.845376 0.980933 0.749522
v 0.847778 0.957922 0.847778
v 0.842792 0.913899 0.913899
v 0.894135 0.894135 0.894135
v 0.845376 0.749522 0.980933
v 0.926637 0.749522 0.926637
v 0.749522 0.845376 0.980933
v 0.847778 0.847778 0.957922
v 0.913899 0.842792 0.913899
v 0.980933 0.845376 0.749522
v 0.926637 0.926637 0.749522
v 0.980933 0.749522 0.845376
v 0.957922 0.847778 0.847778
v 0.913899 0.913899 0.842792
v 0.749522 -1.000000 -0.749522
v 0.749522 -0.749522 -1.000000
v 1.000000 -0.749522 -0.749522
v 0.749522 -0.980933 -0.845376
v 0.749522 -0.926637 -0.926637
v 0.845376 -0.980933 -0.749522
v 0.847778 -0.957922 -0.847778
v 0.842792 -0.913899 -0.913899
v 0.894135 -0.894135 -0.894135
v 0.845376 -0.749522 -0.980933
v 0.926637 -0.749522 -0.926637
v 0.749522 -0.845376 -0.980933
v 0.847778 -0.847778 -0.957922
v 0.913899 -0.842792 -0.913899
v 0.980933 -0.845376 -0.749522
v 0.926637 -0.926637 -0.749522
v 0.980933 -0.749522 -0.845376
v 0.957922 -0.847778 -0.847778
v 0.913899 -0.913899 -0.842792
v 0.749522 1.000000 -0.749522
v 1.000000 0.749522 -0.749522
v 0.749522 0.749522 -1.000000
v 0.845376 0.980933 -0.749522
v 0.926637 0.926637 -0.749522
v 0.749522 0.980933 -0.845376
v 0.847778 0.957922 -0.847778
v 0.913899 0.913899 -0.842792
v 0.894135 0.894135 -0.894135
v 0.980933 0.749522 -0.845376
v 0.926637 0.749522 -0.926637
v 0.980933 0.845376 -0.749522
v 0.957922 0.847778 -0.847778
v 0.913899 0.842792 -0.913899
v 0.749522 0.845376 -0.980933
v 0.749522 0.926637 -0.926637
v 0.845376 0.749522 -0.980933
v 0.847778 0.847778 -0.957922
v 0.842792 0.913899 -0.913899
vt 0.864528 0.134764
vt 0.864527 0.863819
vt 0.135473 0.863819
vt 0.135473 0.134764
vt 0.864172 0.133943
vt 0.864172 0.865584
vt 0.132532 0.865584
vt 0.132532 0.133944
vt 0.864204 0.866088
vt 0.134851 0.866088
vt 0.134851 0.136735
vt 0.864204 0.136735
vt 0.866778 0.132283
vt 0.866778 0.865839
vt 0.133222 0.865839
vt 0.133222 0.132283
vt 0.867450 0.129491
vt 0.867449 0.864390
vt 0.132550 0.864390
vt 0.132550 0.129491
vt 0.126645 0.078537
vt 0.126645 0.102038
vt 0.102555 0.102627
vt 0.103144 0.078538
vt 0.130236 0.012732
vt 0.130236 0.050642
vt 0.107369 0.050642
vt 0.106147 0.013321
vt 0.065234 0.101405
vt 0.065234 0.078537
vt 0.068257 0.002182
vt 0.105569 0.000720
vt 0.105650 0.013308
vt 0.067274 0.039510
vt 0.063436 0.028736
vt 0.063436 0.052237
vt 0.039346 0.052826
vt 0.039935 0.028737
vt 0.063436 0.090147
vt 0.040569 0.090147
vt 0.002026 0.051604
vt 0.002026 0.028736
vt 0.027981 0.090147
vt 0.126166 0.077814
vt 0.102665 0.077814
vt 0.102076 0.053724
vt 0.126166 0.054313
vt 0.064756 0.077814
vt 0.064756 0.054947
vt 0.063436 0.051440
vt 0.039346 0.050851
vt 0.040569 0.013530
vt 0.063436 0.013530
vt 0.104471 0.050851
vt 0.067150 0.052073
vt 0.067150 0.039485
vt 0.105693 0.013530
vt 0.062320 0.913455
vt 0.087381 0.913455
vt 0.088009 0.939144
vt 0.062320 0.938516
vt 0.127807 0.913455
vt 0.127807 0.937840
vt 0.086705 0.978942
vt 0.062320 0.978942
vt 0.127807 0.951264
vt 0.011144 0.887381
vt 0.032992 0.887381
vt 0.033540 0.909776
vt 0.011145 0.909228
vt 0.068235 0.887381
vt 0.068235 0.908640
vt 0.008029 0.912770
vt 0.033717 0.913398
vt 0.032414 0.953196
vt 0.008029 0.953196
vt 0.060573 0.956578
vt 0.060367 0.996397
vt 0.046954 0.995888
vt 0.020853 0.953767
vt 0.011156 0.886937
vt 0.011156 0.865090
vt 0.033551 0.864542
vt 0.033003 0.886937
vt 0.034973 0.953548
vt 0.034973 0.913122
vt 0.059358 0.913122
vt 0.060662 0.952920
vt 0.068247 0.865679
vt 0.068247 0.886937
vt 0.004519 0.994316
vt 0.004024 0.954500
vt 0.017445 0.954773
vt 0.044282 0.996428
vt 0.016203 0.088346
vt 0.016625 0.064513
vt 0.041066 0.064348
vt 0.040036 0.088768
vt 0.016625 0.063541
vt 0.017307 0.025095
vt 0.040498 0.025506
vt 0.041066 0.063377
vt 0.014780 0.023684
vt 0.015810 -0.000736
vt 0.053637 0.001175
vt 0.053225 0.024366
vt 0.053264 0.025733
vt 0.078893 0.065287
vt 0.116068 0.001824
vt 0.116068 0.025661
vt 0.091634 0.026259
vt 0.092231 0.001824
vt 0.116068 0.064113
vt 0.092873 0.064113
vt 0.053779 0.025019
vt 0.053779 0.001824
vt 0.080105 0.064113
vt 0.116068 0.126402
vt 0.092231 0.126402
vt 0.091634 0.101968
vt 0.116068 0.102565
vt 0.053779 0.126402
vt 0.053779 0.103208
vt 0.053779 0.090440
vt 0.067106 0.905536
vt 0.091102 0.904966
vt 0.092288 0.929549
vt 0.067676 0.929532
vt 0.129811 0.904047
vt 0.130365 0.927396
vt 0.091945 0.967686
vt 0.068595 0.968240
vt 0.130671 0.940249
vt 0.002565 0.907068
vt 0.026561 0.906498
vt 0.027747 0.931082
vt 0.003135 0.931064
vt 0.065270 0.905579
vt 0.065825 0.928929
vt 0.027404 0.969219
vt 0.004055 0.969773
vt 0.066130 0.941782
vt 0.127975 0.904090
vt 0.128545 0.928086
vt 0.103962 0.929272
vt 0.103979 0.904660
vt 0.129464 0.966795
vt 0.106115 0.967349
vt 0.093262 0.967655
vt 0.870474 0.058990
vt 0.893943 0.058990
vt 0.894531 0.083047
vt 0.870474 0.082459
vt 0.931801 0.058990
vt 0.931801 0.081826
vt 0.869109 0.001753
vt 0.894399 0.002371
vt 0.893116 0.041551
vt 0.869109 0.041551
vt 0.933579 0.001088
vt 0.942662 0.041551
vt 0.931918 0.081944
vt 0.931918 0.105412
vt 0.907861 0.106001
vt 0.908449 0.081944
vt 0.998049 0.001753
vt 0.998049 0.041551
vt 0.974042 0.041551
vt 0.972759 0.002372
vt 0.870591 0.104780
vt 0.870591 0.081944
vt 0.998049 0.106021
vt 0.973377 0.106021
vt 0.972759 0.080731
vt 0.998049 0.081350
vt 0.933579 0.106021
vt 0.933579 0.082015
vt 0.996138 0.932139
vt 0.996138 0.954912
vt 0.972795 0.955483
vt 0.973365 0.932139
vt 0.996195 0.889046
vt 0.996195 0.927546
vt 0.972972 0.927546
vt 0.971730 0.889644
vt 0.936629 0.954298
vt 0.936629 0.932139
vt 0.933828 0.918759
vt 0.933828 0.888403
vt 0.871461 0.989913
vt 0.871461 0.966046
vt 0.895926 0.965448
vt 0.895328 0.989913
vt 0.871461 0.927546
vt 0.894685 0.927546
vt 0.933828 0.966689
vt 0.933828 0.989913
vt 0.936811 0.959802
vt 0.959584 0.959802
vt 0.960155 0.983146
vt 0.936811 0.982575
vt 0.996320 0.959802
vt 0.996320 0.981961
vt 0.871461 0.889046
vt 0.895926 0.889644
vt 0.871237 0.129205
vt 0.871237 0.104787
vt 0.896266 0.104176
vt 0.895654 0.129205
vt 0.871237 0.065399
vt 0.894996 0.065399
vt 0.935043 0.105445
vt 0.935043 0.129205
vt 0.935043 0.074388
vt 0.998850 0.001592
vt 0.998850 0.026010
vt 0.973820 0.026622
vt 0.974432 0.001592
vt 0.998850 0.065399
vt 0.975090 0.065399
vt 0.935043 0.025352
vt 0.935043 0.001592
vt 0.998850 0.129205
vt 0.974432 0.129205
vt 0.973820 0.104176
vt 0.998850 0.104787
vt 0.996964 0.997708
vt 0.972605 0.997708
vt 0.971995 0.972739
vt 0.996964 0.973349
vt 0.933311 0.997708
vt 0.933311 0.974006
vt 0.973262 0.934055
vt 0.996964 0.934055
vt 0.924343 0.934055
vt 0.869658 0.997708
vt 0.869658 0.973349
vt 0.894627 0.972739
vt 0.894016 0.997708
vt 0.869657 0.934055
vt 0.893360 0.934055
vt 0.869658 0.870402
vt 0.894017 0.870402
vt 0.894627 0.895371
vt 0.869658 0.894761
vt 0.933311 0.870402
vt 0.933311 0.894104
vt 0.864626 0.065465
vt 0.134575 0.065465
vt 0.134574 0.018783
vt 0.864626 0.018783
vt 0.864626 0.079241
vt 0.134574 0.079241
vt 0.134575 0.003937
vt 0.864626 0.003937
vt 0.136371 0.002438
vt 0.866422 0.002438
vt 0.866422 0.077742
vt 0.136371 0.077742
vt 0.136371 0.017285
vt 0.866422 0.017285
vt 0.866422 0.063967
vt 0.136371 0.063967
vt 0.093237 0.143599
vt 0.093237 0.863910
vt 0.047177 0.863911
vt 0.047178 0.143598
vt 0.107373 0.142687
vt 0.107372 0.856490
vt 0.033745 0.856490
vt 0.033745 0.142688
vt 0.107287 0.143394
vt 0.107287 0.860309
vt 0.033338 0.860309
vt 0.033338 0.143394
vt 0.047498 0.858695
vt 0.047495 0.145068
vt 0.093127 0.145068
vt 0.093130 0.858695
vt 0.139319 0.911477
vt 0.865241 0.911477
vt 0.865241 0.957895
vt 0.139319 0.957895
vt 0.137966 0.895087
vt 0.863889 0.895087
vt 0.863888 0.969965
vt 0.137967 0.969965
vt 0.138630 0.893386
vt 0.864552 0.893386
vt 0.864552 0.968264
vt 0.138630 0.968264
vt 0.137277 0.906317
vt 0.863199 0.906317
vt 0.863199 0.952735
vt 0.137277 0.952735
vt 0.046322 0.864308
vt 0.046283 0.142033
vt 0.092468 0.142031
vt 0.092506 0.864305
vt 0.033218 0.864825
vt 0.033180 0.142551
vt 0.107681 0.142547
vt 0.107720 0.864821
vt 0.033785 0.864452
vt 0.033747 0.142178
vt 0.108248 0.142174
vt 0.108287 0.864449
vt 0.046923 0.865435
vt 0.046885 0.143161
vt 0.093070 0.143158
vt 0.093108 0.865433
vt 0.135750 0.018252
vt 0.866089 0.018252
vt 0.866089 0.064952
vt 0.135749 0.064952
vt 0.135134 0.004048
vt 0.865473 0.004048
vt 0.865473 0.079381
vt 0.135134 0.079381
vt 0.135135 0.004046
vt 0.865474 0.004046
vt 0.865474 0.079379
vt 0.135135 0.079380
vt 0.135135 0.018475
vt 0.865474 0.018475
vt 0.865474 0.065175
vt 0.135135 0.065175
vt 0.857726 0.957871
vt 0.138839 0.957871
vt 0.138839 0.911904
vt 0.857726 0.911904
vt 0.857726 0.965430
vt 0.138839 0.965430
vt 0.138839 0.891277
vt 0.857726 0.891277
vt 0.859310 0.971351
vt 0.140423 0.971351
vt 0.140423 0.897198
vt 0.859310 0.897198
vt 0.859310 0.956672
vt 0.140423 0.956672
vt 0.140423 0.910704
vt 0.859310 0.910704
vt 0.912257 0.861808
vt 0.912257 0.133270
vt 0.958842 0.133270
vt 0.958842 0.861808
vt 0.897323 0.861808
vt 0.897323 0.133270
vt 0.972471 0.133270
vt 0.972471 0.861808
vt 0.898647 0.861808
vt 0.898647 0.133270
vt 0.973795 0.133270
vt 0.973795 0.861808
vt 0.912275 0.859347
vt 0.912275 0.130809
vt 0.958860 0.130810
vt 0.958860 0.859347
vt 0.136104 0.016718
vt 0.864092 0.016718
vt 0.864092 0.063268
vt 0.136104 0.063268
vt 0.136104 0.003516
vt 0.864092 0.003516
vt 0.864092 0.078607
vt 0.136104 0.078607
vt 0.138494 0.002124
vt 0.866482 0.002124
vt 0.866482 0.077215
vt 0.138494 0.077215
vt 0.136104 0.017463
vt 0.864092 0.017463
vt 0.864092 0.064013
vt 0.136104 0.064013
vt 0.859383 0.956053
vt 0.134330 0.953528
vt 0.134491 0.907166
vt 0.859544 0.909691
vt 0.859544 0.972049
vt 0.134491 0.969525
vt 0.134752 0.894736
vt 0.859805 0.897261
vt 0.862639 0.973792
vt 0.137586 0.971268
vt 0.137846 0.896479
vt 0.862900 0.899004
vt 0.860065 0.961363
vt 0.135012 0.958838
vt 0.135174 0.912476
vt 0.860227 0.915001
vt 0.912817 0.857146
vt 0.912817 0.133341
vt 0.959100 0.133342
vt 0.959099 0.857146
vt 0.897914 0.858335
vt 0.897914 0.134531
vt 0.972574 0.134531
vt 0.972574 0.858335
vt 0.898732 0.858116
vt 0.898732 0.134312
vt 0.973392 0.134312
vt 0.973391 0.858117
vt 0.910469 0.855695
vt 0.910470 0.132416
vt 0.956718 0.132416
vt 0.956718 0.855695
vt 0.133847 0.014571
vt 0.867120 0.014571
vt 0.867121 0.061459
vt 0.133847 0.061459
vt 0.865699 0.077576
vt 0.134030 0.077576
vt 0.134030 0.002105
vt 0.865698 0.002105
vt 0.866158 0.077462
vt 0.134490 0.077462
vt 0.134490 0.001991
vt 0.866158 0.001992
vt 0.866228 0.062933
vt 0.134560 0.062933
vt 0.134559 0.016148
vt 0.866227 0.016148
vt 0.856967 0.981267
vt 0.156391 0.981267
vt 0.156391 0.936469
vt 0.856967 0.936470
vt 0.858455 0.995661
vt 0.154310 0.995661
vt 0.154310 0.923030
vt 0.858455 0.923030
vt 0.859028 0.994244
vt 0.137038 0.994244
vt 0.137038 0.919772
vt 0.859028 0.919772
vt 0.864158 0.996415
vt 0.134855 0.996415
vt 0.134855 0.949781
vt 0.864158 0.949781
vt 0.864316 0.865255
vt 0.133334 0.865255
vt 0.133334 0.134273
vt 0.864316 0.134273
vn 0.0000 0.0000 1.0000
vn 1.0000 0.0000 0.0000
vn 0.0000 1.0000 0.0000
vn -1.0000 0.0000 0.0000
vn 0.0000 0.0000 -1.0000
vn -0.2049 -0.9571 0.2049
vn -0.1818 -0.8152 0.5500
vn -0.5500 -0.8152 0.1818
vn -0.4931 -0.7167 0.4931
vn -0.2049 -0.2049 0.9571
vn -0.5500 -0.1818 0.8152
vn -0.1818 -0.5500 0.8152
vn -0.4931 -0.4931 0.7167
vn -0.9571 -0.2049 0.2049
vn -0.8152 -0.5500 0.1818
vn -0.8152 -0.1818 0.5500
vn -0.7167 -0.4931 0.4931
vn -0.2049 0.2049 0.9571
vn -0.1818 0.5500 0.8152
vn -0.5500 0.1818 0.8152
vn -0.4931 0.4931 0.7167
vn -0.2049 0.9571 0.2049
vn -0.5500 0.8152 0.1818
vn -0.1818 0.8152 0.5500
vn -0.4931 0.7167 0.4931
vn -0.9571 0.2049 0.2049
vn -0.8152 0.1818 0.5500
vn -0.8152 0.5500 0.1818
vn -0.7167 0.4931 0.4931
vn -0.2049 -0.9571 -0.2049
vn -0.5500 -0.8152 -0.1818
vn -0.1818 -0.8152 -0.5500
vn -0.4931 -0.7167 -0.4931
vn -0.9571 -0.2049 -0.2049
vn -0.8152 -0.1818 -0.5500
vn -0.8152 -0.5500 -0.1818
vn -0.7167 -0.4931 -0.4931
vn -0.2049 -0.2049 -0.9571
vn -0.1818 -0.5500 -0.8152
vn -0.5500 -0.1818 -0.8152
vn -0.4931 -0.4931 -0.7167
vn -0.2049 0.9571 -0.2049
vn -0.1818 0.8152 -0.5500
vn -0.5500 0.8152 -0.1818
vn -0.4931 0.7167 -0.4931
vn -0.2049 0.2049 -0.9571
vn -0.5500 0.1818 -0.8152
vn -0.1818 0.5500 -0.8152
vn -0.4931 0.4931 -0.7167
vn -0.9571 0.2049 -0.2049
vn -0.8152 0.5500 -0.1818
vn -0.8152 0.1818 -0.5500
vn -0.7167 0.4931 -0.4931
vn 0.2049 -0.9571 0.2049
vn 0.5500 -0.8152 0.1818
vn 0.1818 -0.8152 0.5500
vn 0.4931 -0.7167 0.4931
vn 0.9571 -0.2049 0.2049
vn 0.8152 -0.1818 0.5500
vn 0.8152 -0.5500 0.1818
vn 0.7167 -0.4931 0.4931
vn 0.2049 -0.2049 0.9571
vn 0.1818 -0.5500 0.8152
vn 0.5500 -0.1818 0.8152
vn 0.4931 -0.4931 0.7167
vn 0.2049 0.9571 0.2049
vn 0.1818 0.8152 0.5500
vn 0.5500 0.8152 0.1818
vn 0.4931 0.7167 0.4931
vn 0.2049 0.2049 0.9571
vn 0.5500 0.1818 0.8152
vn 0.1818 0.5500 0.8152
vn 0.4931 0.4931 0.7167
vn 0.9571 0.2049 0.2049
vn 0.8152 0.5500 0.1818
vn 0.8152 0.1818 0.5500
vn 0.7167 0.4931 0.4931
vn 0.2049 -0.9571 -0.2049
vn 0.1818 -0.8152 -0.5500
vn 0.5500 -0.8152 -0.1818
vn 0.4931 -0.7167 -0.4931
vn 0.2049 -0.2049 -0.9571
vn 0.5500 -0.1818 -0.8152
vn 0.1818 -0.5500 -0.8152
vn 0.4931 -0.4931 -0.7167
vn 0.9571 -0.2049 -0.2049
vn 0.8152 -0.5500 -0.1818
vn 0.8152 -0.1818 -0.5500
vn 0.7167 -0.4931 -0.4931
vn 0.2049 0.9571 -0.2049
vn 0.5500 0.8152 -0.1818
vn 0.1818 0.8152 -0.5500
vn 0.4931 0.7167 -0.4931
vn 0.9571 0.2049 -0.2049
vn 0.8152 0.1818 -0.5500
vn 0.8152 0.5500 -0.1818
vn 0.7167 0.4931 -0.4931
vn 0.2049 0.2049 -0.9571
vn 0.1818 0.5500 -0.8152
vn 0.5500 0.1818 -0.8152
vn 0.4931 0.4931 -0.7167
vn -0.1951 -0.9808 0.0000
vn -0.5556 -0.8315 0.0000
vn -0.8315 -0.5556 0.0000
vn -0.9808 -0.1951 0.0000
vn -0.1951 0.0000 0.9808
vn -0.5556 0.0000 0.8315
vn -0.8315 0.0000 0.5556
vn -0.9808 0.0000 0.1951
vn -0.1951 0.9808 0.0000
vn -0.5556 0.8315 0.0000
vn -0.8315 0.5556 0.0000
vn -0.9808 0.1951 0.0000
vn -0.1951 0.0000 -0.9808
vn -0.5556 0.0000 -0.8315
vn -0.8315 0.0000 -0.5556
vn -0.9808 0.0000 -0.1951
vn 0.0000 -0.9808 -0.1951
vn 0.0000 -0.8315 -0.5556
vn 0.0000 -0.5556 -0.8315
vn 0.0000 -0.1951 -0.9808
vn 0.0000 0.9808 -0.1951
vn 0.0000 0.8315 -0.5556
vn 0.0000 0.5556 -0.8315
vn 0.0000 0.1951 -0.9808
vn 0.9808 0.0000 -0.1951
vn 0.8315 0.0000 -0.5556
vn 0.5556 0.0000 -0.8315
vn 0.1951 0.0000 -0.9808
vn 0.1951 -0.9808 0.0000
vn 0.5556 -0.8315 0.0000
vn 0.8315 -0.5556 0.0000
vn 0.9808 -0.1951 0.0000
vn 0.1951 0.9808 0.0000
vn 0.5556 0.8315 0.0000
vn 0.8315 0.5556 0.0000
vn 0.9808 0.1951 0.0000
vn 0.1951 0.0000 0.9808
vn 0.5556 0.0000 0.8315
vn 0.8315 0.0000 0.5556
vn 0.9808 0.0000 0.1951
vn 0.0000 -0.9808 0.1951
vn 0.0000 -0.8315 0.5556
vn 0.0000 -0.5556 0.8315
vn 0.0000 -0.1951 0.9808
vn 0.0000 0.9808 0.1951
vn 0.0000 0.8315 0.5556
vn 0.0000 0.5556 0.8315
vn 0.0000 0.1951 0.9808
vn 0.0000 -1.0000 0.0000
usemtl Material
s off
f 79/1/1 97/2/1 20/3/1 2/4/1
f 117/5/2 135/6/2 98/7/2 78/8/2
f 134/9/3 58/10/3 21/11/3 96/12/3
f 3/13/4 22/14/4 60/15/4 40/16/4
f 41/17/5 59/18/5 136/19/5 116/20/5
f 1/21/6 4/22/6 7/23/6 6/24/6
f 4/25/7 5/26/7 8/27/7 7/28/7
f 6/24/8 7/23/8 19/29/8 16/30/8
f 7/31/9 8/32/9 9/33/9 19/34/9
f 2/35/10 10/36/10 13/37/10 12/38/10
f 10/36/11 11/39/11 14/40/11 13/37/11
f 12/38/12 13/37/12 8/41/12 5/42/12
f 13/37/13 14/40/13 9/43/13 8/41/13
f 3/44/14 15/45/14 18/46/14 17/47/14
f 15/45/15 16/48/15 19/49/15 18/46/15
f 17/50/16 18/51/16 14/52/16 11/53/16
f 18/54/17 19/55/17 9/56/17 14/57/17
f 20/58/18 23/59/18 26/60/18 25/61/18
f 23/59/19 24/62/19 27/63/19 26/60/19
f 25/61/20 26/60/20 38/64/20 35/65/20
f 26/60/21 27/63/21 28/66/21 38/64/21
f 21/67/22 29/68/22 32/69/22 31/70/22
f 29/68/23 30/71/23 33/72/23 32/69/23
f 31/73/24 32/74/24 27/75/24 24/76/24
f 32/77/25 33/78/25 28/79/25 27/80/25
f 22/81/26 34/82/26 37/83/26 36/84/26
f 34/85/27 35/86/27 38/87/27 37/88/27
f 36/84/28 37/83/28 33/89/28 30/90/28
f 37/91/29 38/92/29 28/93/29 33/94/29
f 39/95/30 42/96/30 45/97/30 44/98/30
f 42/99/31 43/100/31 46/101/31 45/102/31
f 44/103/32 45/104/32 57/105/32 54/106/32
f 45/102/33 46/101/33 47/107/33 57/108/33
f 40/109/34 48/110/34 51/111/34 50/112/34
f 48/110/35 49/113/35 52/114/35 51/111/35
f 50/112/36 51/111/36 46/115/36 43/116/36
f 51/111/37 52/114/37 47/117/37 46/115/37
f 41/118/38 53/119/38 56/120/38 55/121/38
f 53/119/39 54/122/39 57/123/39 56/120/39
f 55/121/40 56/120/40 52/114/40 49/113/40
f 56/120/41 57/123/41 47/124/41 52/114/41
f 58/125/42 61/126/42 64/127/42 63/128/42
f 61/126/43 62/129/43 65/130/43 64/127/43
f 63/128/44 64/127/44 76/131/44 73/132/44
f 64/127/45 65/130/45 66/133/45 76/131/45
f 59/134/46 67/135/46 70/136/46 69/137/46
f 67/135/47 68/138/47 71/139/47 70/136/47
f 69/137/48 70/136/48 65/140/48 62/141/48
f 70/136/49 71/139/49 66/142/49 65/140/49
f 60/143/50 72/144/50 75/145/50 74/146/50
f 72/144/51 73/147/51 76/148/51 75/145/51
f 74/146/52 75/145/52 71/139/52 68/138/52
f 75/145/53 76/148/53 66/149/53 71/139/53
f 77/150/54 80/151/54 83/152/54 82/153/54
f 80/151/55 81/154/55 84/155/55 83/152/55
f 82/156/56 83/157/56 95/158/56 92/159/56
f 83/157/57 84/160/57 85/161/57 95/158/57
f 78/162/58 86/163/58 89/164/58 88/165/58
f 86/166/59 87/167/59 90/168/59 89/169/59
f 88/165/60 89/164/60 84/170/60 81/171/60
f 89/169/61 90/168/61 85/161/61 84/160/61
f 79/172/62 91/173/62 94/174/62 93/175/62
f 91/173/63 92/176/63 95/177/63 94/174/63
f 93/175/64 94/174/64 90/168/64 87/167/64
f 94/174/65 95/177/65 85/161/65 90/168/65
f 96/178/66 99/179/66 102/180/66 101/181/66
f 99/182/67 100/183/67 103/184/67 102/185/67
f 101/181/68 102/180/68 114/186/68 111/187/68
f 102/185/69 103/184/69 104/188/69 114/189/69
f 97/190/70 105/191/70 108/192/70 107/193/70
f 105/191/71 106/194/71 109/195/71 108/192/71
f 107/193/72 108/192/72 103/196/72 100/197/72
f 108/192/73 109/195/73 104/188/73 103/196/73
f 98/198/74 110/199/74 113/200/74 112/201/74
f 110/199/75 111/202/75 114/203/75 113/200/75
f 112/204/76 113/205/76 109/195/76 106/194/76
f 113/205/77 114/189/77 104/188/77 109/195/77
f 115/206/78 118/207/78 121/208/78 120/209/78
f 118/207/79 119/210/79 122/211/79 121/208/79
f 120/209/80 121/208/80 133/212/80 130/213/80
f 121/208/81 122/211/81 123/214/81 133/212/81
f 116/215/82 124/216/82 127/217/82 126/218/82
f 124/216/83 125/219/83 128/220/83 127/217/83
f 126/218/84 127/217/84 122/221/84 119/222/84
f 127/217/85 128/220/85 123/214/85 122/221/85
f 117/223/86 129/224/86 132/225/86 131/226/86
f 129/224/87 130/213/87 133/212/87 132/225/87
f 131/226/88 132/225/88 128/220/88 125/219/88
f 132/225/89 133/212/89 123/214/89 128/220/89
f 134/227/90 137/228/90 140/229/90 139/230/90
f 137/228/91 138/231/91 141/232/91 140/229/91
f 139/230/92 140/229/92 152/233/92 149/234/92
f 140/229/93 141/232/93 142/235/93 152/233/93
f 135/236/94 143/237/94 146/238/94 145/239/94
f 143/237/95 144/240/95 147/241/95 146/238/95
f 145/239/96 146/238/96 141/232/96 138/231/96
f 146/238/97 147/241/97 142/235/97 141/232/97
f 136/242/98 148/243/98 151/244/98 150/245/98
f 148/243/99 149/246/99 152/247/99 151/244/99
f 150/245/100 151/244/100 147/241/100 144/240/100
f 151/244/101 152/247/101 142/235/101 147/241/101
f 39/248/102 1/249/102 6/250/102 42/251/102
f 42/252/103 6/253/103 16/254/103 43/255/103
f 43/256/104 16/257/104 15/258/104 50/259/104
f 50/260/105 15/261/105 3/262/105 40/263/105
f 2/264/106 20/265/106 25/266/106 10/267/106
f 10/268/107 25/269/107 35/270/107 11/271/107
f 11/272/108 35/273/108 34/274/108 17/275/108
f 17/276/109 34/277/109 22/278/109 3/279/109
f 21/280/110 58/281/110 63/282/110 29/283/110
f 29/284/111 63/285/111 73/286/111 30/287/111
f 30/288/112 73/289/112 72/290/112 36/291/112
f 36/292/113 72/293/113 60/294/113 22/295/113
f 59/296/114 41/297/114 55/298/114 67/299/114
f 67/300/115 55/301/115 49/302/115 68/303/115
f 68/304/116 49/305/116 48/306/116 74/307/116
f 74/308/117 48/309/117 40/310/117 60/311/117
f 115/312/118 39/313/118 44/314/118 118/315/118
f 118/316/119 44/317/119 54/318/119 119/319/119
f 119/320/120 54/321/120 53/322/120 126/323/120
f 126/324/121 53/325/121 41/326/121 116/327/121
f 58/328/122 134/329/122 139/330/122 61/331/122
f 61/332/123 139/333/123 149/334/123 62/335/123
f 62/336/124 149/337/124 148/338/124 69/339/124
f 69/340/125 148/341/125 136/342/125 59/343/125
f 135/344/126 117/345/126 131/346/126 143/347/126
f 143/348/127 131/349/127 125/350/127 144/351/127
f 144/352/128 125/353/128 124/354/128 150/355/128
f 150/356/129 124/357/129 116/358/129 136/359/129
f 77/360/130 115/361/130 120/362/130 80/363/130
f 80/364/131 120/365/131 130/366/131 81/367/131
f 81/368/132 130/369/132 129/370/132 88/371/132
f 88/372/133 129/373/133 117/374/133 78/375/133
f 134/376/134 96/377/134 101/378/134 137/379/134
f 137/380/135 101/381/135 111/382/135 138/383/135
f 138/384/136 111/385/136 110/386/136 145/387/136
f 145/388/137 110/389/137 98/390/137 135/391/137
f 97/392/138 79/393/138 93/394/138 105/395/138
f 105/396/139 93/397/139 87/398/139 106/399/139
f 106/400/140 87/401/140 86/402/140 112/403/140
f 112/404/141 86/405/141 78/406/141 98/407/141
f 1/408/142 77/409/142 82/410/142 4/411/142
f 4/412/143 82/413/143 92/414/143 5/415/143
f 5/416/144 92/417/144 91/418/144 12/419/144
f 12/420/145 91/421/145 79/422/145 2/423/145
f 96/424/146 21/425/146 31/426/146 99/427/146
f 99/428/147 31/429/147 24/430/147 100/431/147
f 100/432/148 24/433/148 23/434/148 107/435/148
f 107/436/149 23/437/149 20/438/149 97/439/149
f 39/440/150 115/441/150 77/442/150 1/443/150
