# Blender v2.81 (sub 16) OBJ File: 'cubeoneface.blend'
# www.blender.org
mtllib cubeoneface.mtl
o Cube_Cube.001
v -0.749522 -1.000000 -0.107502
v -0.749522 -0.749522 0.142976
v -1.000000 -0.749522 -0.107502
v -0.749522 -0.980933 -0.011648
v -0.749522 -0.926637 0.069613
v -0.845376 -0.980933 -0.107502
v -0.847778 -0.957922 -0.009246
v -0.842792 -0.913899 0.056875
v -0.894135 -0.894135 0.037111
v -0.845376 -0.749522 0.123909
v -0.926637 -0.749522 0.069613
v -0.749522 -0.845376 0.123909
v -0.847778 -0.847778 0.100898
v -0.913899 -0.842792 0.056875
v -0.980933 -0.845376 -0.107502
v -0.926637 -0.926637 -0.107502
v -0.980933 -0.749522 -0.011648
v -0.957922 -0.847778 -0.009246
v -0.913899 -0.913899 -0.014232
v -0.749522 0.749522 0.142976
v -0.749522 1.000000 -0.107502
v -1.000000 0.749522 -0.107502
v -0.749522 0.845376 0.123909
v -0.749522 0.926637 0.069613
v -0.845376 0.749522 0.123909
v -0.847778 0.847778 0.100898
v -0.842792 0.913899 0.056875
v -0.894135 0.894135 0.037111
v -0.845376 0.980933 -0.107502
v -0.926637 0.926637 -0.107502
v -0.749522 0.980933 -0.011648
v -0.847778 0.957922 -0.009246
v -0.913899 0.913899 -0.014232
v -0.980933 0.749522 -0.011648
v -0.926637 0.749522 0.069613
v -0.980933 0.845376 -0.107502
v -0.957922 0.847778 -0.009246
v -0.913899 0.842792 0.056875
v 0.749522 -1.000000 -0.107502
v 1.000000 -0.749522 -0.107502
v 0.749522 -0.749522 0.142976
v 0.845376 -0.980933 -0.107502
v 0.926637 -0.926637 -0.107502
v 0.749522 -0.980933 -0.011648
v 0.847778 -0.957922 -0.009246
v 0.913899 -0.913899 -0.014232
v 0.894135 -0.894135 0.037111
v 0.980933 -0.749522 -0.011648
v 0.926637 -0.749522 0.069613
v 0.980933 -0.845376 -0.107502
v 0.957922 -0.847778 -0.009246
v 0.913899 -0.842792 0.056875
v 0.749522 -0.845376 0.123909
v 0.749522 -0.926637 0.069613
v 0.845376 -0.749522 0.123909
v 0.847778 -0.847778 0.100898
v 0.842792 -0.913899 0.056875
v 0.749522 1.000000 -0.107502
v 0.749522 0.749522 0.142976
v 1.000000 0.749522 -0.107502
v 0.749522 0.980933 -0.011648
v 0.749522 0.926637 0.069613
v 0.845376 0.980933 -0.107502
v 0.847778 0.957922 -0.009246
v 0.842792 0.913899 0.056875
v 0.894135 0.894135 0.037111
v 0.845376 0.749522 0.123909
v 0.926637 0.749522 0.069613
v 0.749522 0.845376 0.123909
v 0.847778 0.847778 0.100898
v 0.913899 0.842792 0.056875
v 0.980933 0.845376 -0.107502
v 0.926637 0.926637 -0.107502
v 0.980933 0.749522 -0.011648
v 0.957922 0.847778 -0.009246
v 0.913899 0.913899 -0.014232
vt 0.864528 0.134764
vt 0.864527 0.863819
vt 0.135473 0.863819
vt 0.135473 0.134764
vt 0.126645 0.078537
vt 0.126645 0.102038
vt 0.102555 0.102627
vt 0.103144 0.078538
vt 0.130236 0.012732
vt 0.130236 0.050642
vt 0.107369 0.050642
vt 0.106147 0.013321
vt 0.065234 0.101405
vt 0.065234 0.078537
vt 0.068257 0.002182
vt 0.105569 0.000720
vt 0.105650 0.013308
vt 0.067274 0.039510
vt 0.063436 0.028736
vt 0.063436 0.052237
vt 0.039346 0.052826
vt 0.039935 0.028737
vt 0.063436 0.090147
vt 0.040569 0.090147
vt 0.002026 0.051604
vt 0.002026 0.028736
vt 0.027981 0.090147
vt 0.126166 0.077814
vt 0.102665 0.077814
vt 0.102076 0.053724
vt 0.126166 0.054313
vt 0.064756 0.077814
vt 0.064756 0.054947
vt 0.063436 0.051440
vt 0.039346 0.050851
vt 0.040569 0.013530
vt 0.063436 0.013530
vt 0.104471 0.050851
vt 0.067150 0.052073
vt 0.067150 0.039485
vt 0.105693 0.013530
vt 0.062320 0.913455
vt 0.087381 0.913455
vt 0.088009 0.939144
vt 0.062320 0.938516
vt 0.127807 0.913455
vt 0.127807 0.937840
vt 0.086705 0.978942
vt 0.062320 0.978942
vt 0.127807 0.951264
vt 0.011144 0.887381
vt 0.032992 0.887381
vt 0.033540 0.909776
vt 0.011145 0.909228
vt 0.068235 0.887381
vt 0.068235 0.908640
vt 0.008029 0.912770
vt 0.033717 0.913398
vt 0.032414 0.953196
vt 0.008029 0.953196
vt 0.060573 0.956578
vt 0.060367 0.996397
vt 0.046954 0.995888
vt 0.020853 0.953767
vt 0.011156 0.886937
vt 0.011156 0.865090
vt 0.033551 0.864542
vt 0.033003 0.886937
vt 0.034973 0.953548
vt 0.034973 0.913122
vt 0.059358 0.913122
vt 0.060662 0.952920
vt 0.068247 0.865679
vt 0.068247 0.886937
vt 0.004519 0.994316
vt 0.004024 0.954500
vt 0.017445 0.954773
vt 0.044282 0.996428
vt 0.870474 0.058990
vt 0.893943 0.058990
vt 0.894531 0.083047
vt 0.870474 0.082459
vt 0.931801 0.058990
vt 0.931801 0.081826
vt 0.869109 0.001753
vt 0.894399 0.002371
vt 0.893116 0.041551
vt 0.869109 0.041551
vt 0.933579 0.001088
vt 0.942662 0.041551
vt 0.931918 0.081944
vt 0.931918 0.105412
vt 0.907861 0.106001
vt 0.908449 0.081944
vt 0.998049 0.001753
vt 0.998049 0.041551
vt 0.974042 0.041551
vt 0.972759 0.002372
vt 0.870591 0.104780
vt 0.870591 0.081944
vt 0.998049 0.106021
vt 0.973377 0.106021
vt 0.972759 0.080731
vt 0.998049 0.081350
vt 0.933579 0.106021
vt 0.933579 0.082015
vt 0.996138 0.932139
vt 0.996138 0.954912
vt 0.972795 0.955483
vt 0.973365 0.932139
vt 0.996195 0.889046
vt 0.996195 0.927546
vt 0.972972 0.927546
vt 0.971730 0.889644
vt 0.936629 0.954298
vt 0.936629 0.932139
vt 0.933828 0.918759
vt 0.933828 0.888403
vt 0.871461 0.989913
vt 0.871461 0.966046
vt 0.895926 0.965448
vt 0.895328 0.989913
vt 0.871461 0.927546
vt 0.894685 0.927546
vt 0.933828 0.966689
vt 0.933828 0.989913
vt 0.936811 0.959802
vt 0.959584 0.959802
vt 0.960155 0.983146
vt 0.936811 0.982575
vt 0.996320 0.959802
vt 0.996320 0.981961
vt 0.871461 0.889046
vt 0.895926 0.889644
vt 0.093237 0.143599
vt 0.093237 0.863910
vt 0.047177 0.863911
vt 0.047178 0.143598
vt 0.107373 0.142687
vt 0.107372 0.856490
vt 0.033745 0.856490
vt 0.033745 0.142688
vt 0.107287 0.143394
vt 0.107287 0.860309
vt 0.033338 0.860309
vt 0.033338 0.143394
vt 0.047498 0.858695
vt 0.047495 0.145068
vt 0.093127 0.145068
vt 0.093130 0.858695
vt 0.912817 0.857146
vt 0.912817 0.133341
vt 0.959100 0.133342
vt 0.959099 0.857146
vt 0.897914 0.858335
vt 0.897914 0.134531
vt 0.972574 0.134531
vt 0.972574 0.858335
vt 0.898732 0.858116
vt 0.898732 0.134312
vt 0.973392 0.134312
vt 0.973391 0.858117
vt 0.910469 0.855695
vt 0.910470 0.132416
vt 0.956718 0.132416
vt 0.956718 0.855695
vt 0.133847 0.014571
vt 0.867120 0.014571
vt 0.867121 0.061459
vt 0.133847 0.061459
vt 0.865699 0.077576
vt 0.134030 0.077576
vt 0.134030 0.002105
vt 0.865698 0.002105
vt 0.866158 0.077462
vt 0.134490 0.077462
vt 0.134490 0.001991
vt 0.866158 0.001992
vt 0.866228 0.062933
vt 0.134560 0.062933
vt 0.134559 0.016148
vt 0.866227 0.016148
vt 0.856967 0.981267
vt 0.156391 0.981267
vt 0.156391 0.936469
vt 0.856967 0.936470
vt 0.858455 0.995661
vt 0.154310 0.995661
vt 0.154310 0.923030
vt 0.858455 0.923030
vt 0.859028 0.994244
vt 0.137038 0.994244
vt 0.137038 0.919772
vt 0.859028 0.919772
vt 0.864158 0.996415
vt 0.134855 0.996415
vt 0.134855 0.949781
vt 0.864158 0.949781
vn 0.0000 0.0000 1.0000
vn -0.2049 -0.9571 0.2049
vn -0.1818 -0.8152 0.5500
vn -0.5500 -0.8152 0.1818
vn -0.4931 -0.7167 0.4931
vn -0.2049 -0.2049 0.9571
vn -0.5500 -0.1818 0.8152
vn -0.1818 -0.5500 0.8152
vn -0.4931 -0.4931 0.7167
vn -0.9571 -0.2049 0.2049
vn -0.8152 -0.5500 0.1818
vn -0.8152 -0.1818 0.5500
vn -0.7167 -0.4931 0.4931
vn -0.2049 0.2049 0.9571
vn -0.1818 0.5500 0.8152
vn -0.5500 0.1818 0.8152
vn -0.4931 0.4931 0.7167
vn -0.2049 0.9571 0.2049
vn -0.5500 0.8152 0.1818
vn -0.1818 0.8152 0.5500
vn -0.4931 0.7167 0.4931
vn -0.9571 0.2049 0.2049
vn -0.8152 0.1818 0.5500
vn -0.8152 0.5500 0.1818
vn -0.7167 0.4931 0.4931
vn 0.2049 -0.9571 0.2049
vn 0.5500 -0.8152 0.1818
vn 0.1818 -0.8152 0.5500
vn 0.4931 -0.7167 0.4931
vn 0.9571 -0.2049 0.2049
vn 0.8152 -0.1818 0.5500
vn 0.8152 -0.5500 0.1818
vn 0.7167 -0.4931 0.4931
vn 0.2049 -0.2049 0.9571
vn 0.1818 -0.5500 0.8152
vn 0.5500 -0.1818 0.8152
vn 0.4931 -0.4931 0.7167
vn 0.2049 0.9571 0.2049
vn 0.1818 0.8152 0.5500
vn 0.5500 0.8152 0.1818
vn 0.4931 0.7167 0.4931
vn 0.2049 0.2049 0.9571
vn 0.5500 0.1818 0.8152
vn 0.1818 0.5500 0.8152
vn 0.4931 0.4931 0.7167
vn 0.9571 0.2049 0.2049
vn 0.8152 0.5500 0.1818
vn 0.8152 0.1818 0.5500
vn 0.7167 0.4931 0.4931
vn -0.1951 0.0000 0.9808
vn -0.5556 0.0000 0.8315
vn -0.8315 0.0000 0.5556
vn -0.9808 0.0000 0.1951
vn 0.1951 0.0000 0.9808
vn 0.5556 0.0000 0.8315
vn 0.8315 0.0000 0.5556
vn 0.9808 0.0000 0.1951
vn 0.0000 -0.9808 0.1951
vn 0.0000 -0.8315 0.5556
vn 0.0000 -0.5556 0.8315
vn 0.0000 -0.1951 0.9808
vn 0.0000 0.9808 0.1951
vn 0.0000 0.8315 0.5556
vn 0.0000 0.5556 0.8315
vn 0.0000 0.1951 0.9808
usemtl Material
s off
f 41/1/1 59/2/1 20/3/1 2/4/1
f 1/5/2 4/6/2 7/7/2 6/8/2
f 4/9/3 5/10/3 8/11/3 7/12/3
f 6/8/4 7/7/4 19/13/4 16/14/4
f 7/15/5 8/16/5 9/17/5 19/18/5
f 2/19/6 10/20/6 13/21/6 12/22/6
f 10/20/7 11/23/7 14/24/7 13/21/7
f 12/22/8 13/21/8 8/25/8 5/26/8
f 13/21/9 14/24/9 9/27/9 8/25/9
f 3/28/10 15/29/10 18/30/10 17/31/10
f 15/29/11 16/32/11 19/33/11 18/30/11
f 17/34/12 18/35/12 14/36/12 11/37/12
f 18/38/13 19/39/13 9/40/13 14/41/13
f 20/42/14 23/43/14 26/44/14 25/45/14
f 23/43/15 24/46/15 27/47/15 26/44/15
f 25/45/16 26/44/16 38/48/16 35/49/16
f 26/44/17 27/47/17 28/50/17 38/48/17
f 21/51/18 29/52/18 32/53/18 31/54/18
f 29/52/19 30/55/19 33/56/19 32/53/19
f 31/57/20 32/58/20 27/59/20 24/60/20
f 32/61/21 33/62/21 28/63/21 27/64/21
f 22/65/22 34/66/22 37/67/22 36/68/22
f 34/69/23 35/70/23 38/71/23 37/72/23
f 36/68/24 37/67/24 33/73/24 30/74/24
f 37/75/25 38/76/25 28/77/25 33/78/25
f 39/79/26 42/80/26 45/81/26 44/82/26
f 42/80/27 43/83/27 46/84/27 45/81/27
f 44/85/28 45/86/28 57/87/28 54/88/28
f 45/86/29 46/89/29 47/90/29 57/87/29
f 40/91/30 48/92/30 51/93/30 50/94/30
f 48/95/31 49/96/31 52/97/31 51/98/31
f 50/94/32 51/93/32 46/99/32 43/100/32
f 51/98/33 52/97/33 47/90/33 46/89/33
f 41/101/34 53/102/34 56/103/34 55/104/34
f 53/102/35 54/105/35 57/106/35 56/103/35
f 55/104/36 56/103/36 52/97/36 49/96/36
f 56/103/37 57/106/37 47/90/37 52/97/37
f 58/107/38 61/108/38 64/109/38 63/110/38
f 61/111/39 62/112/39 65/113/39 64/114/39
f 63/110/40 64/109/40 76/115/40 73/116/40
f 64/114/41 65/113/41 66/117/41 76/118/41
f 59/119/42 67/120/42 70/121/42 69/122/42
f 67/120/43 68/123/43 71/124/43 70/121/43
f 69/122/44 70/121/44 65/125/44 62/126/44
f 70/121/45 71/124/45 66/117/45 65/125/45
f 60/127/46 72/128/46 75/129/46 74/130/46
f 72/128/47 73/131/47 76/132/47 75/129/47
f 74/133/48 75/134/48 71/124/48 68/123/48
f 75/134/49 76/118/49 66/117/49 71/124/49
f 2/135/50 20/136/50 25/137/50 10/138/50
f 10/139/51 25/140/51 35/141/51 11/142/51
f 11/143/52 35/144/52 34/145/52 17/146/52
f 17/147/53 34/148/53 22/149/53 3/150/53
f 59/151/54 41/152/54 55/153/54 67/154/54
f 67/155/55 55/156/55 49/157/55 68/158/55
f 68/159/56 49/160/56 48/161/56 74/162/56
f 74/163/57 48/164/57 40/165/57 60/166/57
f 1/167/58 39/168/58 44/169/58 4/170/58
f 4/171/59 44/172/59 54/173/59 5/174/59
f 5/175/60 54/176/60 53/177/60 12/178/60
f 12/179/61 53/180/61 41/181/61 2/182/61
f 58/183/62 21/184/62 31/185/62 61/186/62
f 61/187/63 31/188/63 24/189/63 62/190/63
f 62/191/64 24/192/64 23/193/64 69/194/64
f 69/195/65 23/196/65 20/197/65 59/198/65
