# Blender v2.81 (sub 16) OBJ File: ''
# www.blender.org
mtllib onea.mtl
o Cube
v 0.583022 -0.996011 0.830650
v 0.996011 -0.583022 0.830650
v 0.579840 -0.579840 0.417686
v 0.741064 -0.964572 0.830650
v 0.875047 -0.875047 0.830650
v 0.581802 -0.963355 0.672616
v 0.743775 -0.925381 0.668655
v 0.852859 -0.852859 0.676875
v 0.819620 -0.819620 0.592225
v 0.963355 -0.581802 0.672616
v 0.872797 -0.580769 0.538640
v 0.964572 -0.741064 0.830650
v 0.925381 -0.743775 0.668655
v 0.851956 -0.734714 0.559641
v 0.580080 -0.738124 0.449121
v 0.580769 -0.872797 0.538640
v 0.738124 -0.580080 0.449121
v 0.742375 -0.742375 0.487059
v 0.734714 -0.851956 0.559641
v -0.583022 -0.996011 0.830650
v -0.579840 -0.579840 0.417686
v -0.996011 -0.583022 0.830650
v -0.581802 -0.963355 0.672616
v -0.580769 -0.872797 0.538640
v -0.741064 -0.964572 0.830650
v -0.743775 -0.925381 0.668655
v -0.734714 -0.851956 0.559641
v -0.819620 -0.819620 0.592225
v -0.738124 -0.580080 0.449121
v -0.872797 -0.580769 0.538640
v -0.580080 -0.738124 0.449121
v -0.742375 -0.742375 0.487059
v -0.851955 -0.734714 0.559641
v -0.964572 -0.741064 0.830650
v -0.875047 -0.875047 0.830650
v -0.963355 -0.581802 0.672616
v -0.925381 -0.743775 0.668655
v -0.852859 -0.852859 0.676875
v 0.583817 0.996806 0.933384
v 0.996806 0.583817 0.933384
v 0.587023 0.587023 1.346349
v 0.741859 0.965367 0.933384
v 0.875841 0.875841 0.933384
v 0.585042 0.966594 1.091419
v 0.747075 0.928682 1.095379
v 0.856032 0.856032 1.087160
v 0.824103 0.824103 1.171810
v 0.966594 0.585042 1.091419
v 0.878109 0.586081 1.225394
v 0.965367 0.741859 0.933384
v 0.928682 0.747075 1.095379
v 0.856943 0.739702 1.204394
v 0.586777 0.744821 1.314914
v 0.586081 0.878109 1.225394
v 0.744821 0.586777 1.314914
v 0.748486 0.748486 1.276975
v 0.739702 0.856943 1.204394
v 0.583817 -0.996806 0.933384
v 0.587023 -0.587023 1.346349
v 0.996806 -0.583817 0.933384
v 0.585042 -0.966594 1.091419
v 0.586081 -0.878109 1.225394
v 0.741859 -0.965367 0.933384
v 0.747075 -0.928682 1.095379
v 0.739702 -0.856943 1.204394
v 0.824103 -0.824103 1.171810
v 0.744821 -0.586777 1.314914
v 0.878109 -0.586081 1.225394
v 0.586777 -0.744821 1.314914
v 0.748486 -0.748486 1.276975
v 0.856943 -0.739702 1.204394
v 0.965367 -0.741859 0.933384
v 0.875841 -0.875841 0.933384
v 0.966594 -0.585042 1.091419
v 0.928682 -0.747075 1.095379
v 0.856032 -0.856032 1.087160
v -0.583022 0.996011 0.830650
v -0.996011 0.583022 0.830650
v -0.579840 0.579840 0.417686
v -0.741064 0.964572 0.830650
v -0.875047 0.875047 0.830650
v -0.581802 0.963355 0.672616
v -0.743775 0.925381 0.668655
v -0.852859 0.852859 0.676875
v -0.819620 0.819620 0.592225
v -0.963355 0.581802 0.672616
v -0.872797 0.580769 0.538640
v -0.964572 0.741064 0.830650
v -0.925381 0.743775 0.668655
v -0.851956 0.734714 0.559641
v -0.580080 0.738124 0.449121
v -0.580769 0.872797 0.538640
v -0.738124 0.580080 0.449121
v -0.742375 0.742375 0.487059
v -0.734714 0.851956 0.559641
v 0.583022 0.996011 0.830650
v 0.579840 0.579840 0.417686
v 0.996011 0.583022 0.830650
v 0.581802 0.963355 0.672616
v 0.580769 0.872797 0.538640
v 0.741064 0.964572 0.830650
v 0.743775 0.925381 0.668655
v 0.734714 0.851956 0.559641
v 0.819620 0.819620 0.592225
v 0.738124 0.580080 0.449121
v 0.872797 0.580769 0.538640
v 0.580080 0.738124 0.449121
v 0.742375 0.742375 0.487059
v 0.851955 0.734714 0.559641
v 0.964572 0.741064 0.830650
v 0.875047 0.875047 0.830650
v 0.963355 0.581802 0.672616
v 0.925381 0.743775 0.668655
v 0.852859 0.852859 0.676875
v -0.587023 0.587023 1.346349
v -0.996806 0.583817 0.933384
v -0.583817 0.996806 0.933384
v -0.744821 0.586777 1.314914
v -0.878109 0.586081 1.225394
v -0.586777 0.744821 1.314914
v -0.748486 0.748486 1.276975
v -0.856943 0.739702 1.204394
v -0.824103 0.824103 1.171810
v -0.965367 0.741859 0.933384
v -0.875841 0.875841 0.933384
v -0.966594 0.585042 1.091419
v -0.928682 0.747075 1.095379
v -0.856032 0.856032 1.087160
v -0.585042 0.966594 1.091419
v -0.586081 0.878109 1.225394
v -0.741859 0.965367 0.933384
v -0.747075 0.928682 1.095379
v -0.739702 0.856943 1.204394
v -0.587023 -0.587023 1.346349
v -0.583817 -0.996806 0.933384
v -0.996806 -0.583817 0.933384
v -0.586777 -0.744821 1.314914
v -0.586081 -0.878109 1.225394
v -0.744821 -0.586777 1.314914
v -0.748486 -0.748486 1.276975
v -0.739702 -0.856943 1.204394
v -0.824103 -0.824103 1.171810
v -0.741859 -0.965367 0.933384
v -0.875841 -0.875841 0.933384
v -0.585042 -0.966594 1.091419
v -0.747075 -0.928682 1.095379
v -0.856032 -0.856032 1.087160
v -0.966594 -0.585042 1.091419
v -0.878109 -0.586081 1.225394
v -0.965367 -0.741859 0.933384
v -0.928682 -0.747075 1.095379
v -0.856943 -0.739702 1.204394
vt 0.625000 0.551793
vt 0.625000 0.698207
vt 0.625000 0.698174
vt 0.625000 0.551826
vt 0.426622 0.551622
vt 0.426622 0.698378
vt 0.573378 0.698378
vt 0.573378 0.551622
vt 0.426793 0.500000
vt 0.573207 0.500000
vt 0.573174 0.500000
vt 0.426826 0.500000
vt 0.573207 0.750000
vt 0.426793 0.750000
vt 0.426826 0.750000
vt 0.573174 0.750000
vt 0.375000 0.551826
vt 0.375000 0.531991
vt 0.375000 0.531521
vt 0.375000 0.551879
vt 0.375000 0.500000
vt 0.375000 0.500000
vt 0.375000 0.532496
vt 0.375000 0.551879
vt 0.382269 0.507269
vt 0.426879 0.500000
vt 0.406521 0.500000
vt 0.406991 0.500000
vt 0.426879 0.500000
vt 0.407496 0.500000
vt 0.426996 0.551996
vt 0.407067 0.551965
vt 0.406532 0.531532
vt 0.426965 0.532067
vt 0.375000 0.698174
vt 0.375000 0.698121
vt 0.375000 0.718479
vt 0.375000 0.718009
vt 0.375000 0.698121
vt 0.375000 0.717504
vt 0.375000 0.750000
vt 0.375000 0.750000
vt 0.382269 0.742731
vt 0.426996 0.698004
vt 0.426965 0.717933
vt 0.406532 0.718468
vt 0.407067 0.698035
vt 0.426879 0.750000
vt 0.407496 0.750000
vt 0.406991 0.750000
vt 0.406521 0.750000
vt 0.426879 0.750000
vt 0.625000 0.531974
vt 0.625000 0.531449
vt 0.625000 0.551739
vt 0.625000 0.500000
vt 0.625000 0.500000
vt 0.625000 0.532537
vt 0.625000 0.551740
vt 0.617671 0.507329
vt 0.573261 0.500000
vt 0.593551 0.500000
vt 0.593026 0.500000
vt 0.573260 0.500000
vt 0.592463 0.500000
vt 0.593103 0.551653
vt 0.593561 0.531439
vt 0.573347 0.531897
vt 0.375000 0.551793
vt 0.375000 0.551739
vt 0.375000 0.531449
vt 0.375000 0.531974
vt 0.375000 0.551740
vt 0.375000 0.532537
vt 0.375000 0.500000
vt 0.375000 0.500000
vt 0.382329 0.507329
vt 0.426653 0.531897
vt 0.406439 0.531439
vt 0.406897 0.551653
vt 0.426740 0.500000
vt 0.407537 0.500000
vt 0.406974 0.500000
vt 0.406449 0.500000
vt 0.426739 0.500000
vt 0.625000 0.718009
vt 0.625000 0.718479
vt 0.625000 0.698121
vt 0.625000 0.750000
vt 0.625000 0.750000
vt 0.625000 0.717504
vt 0.625000 0.698121
vt 0.617731 0.742731
vt 0.573121 0.750000
vt 0.593479 0.750000
vt 0.593009 0.750000
vt 0.573121 0.750000
vt 0.592504 0.750000
vt 0.573004 0.698004
vt 0.592933 0.698035
vt 0.593468 0.718468
vt 0.573035 0.717933
vt 0.625000 0.551879
vt 0.625000 0.531521
vt 0.625000 0.531991
vt 0.625000 0.551879
vt 0.625000 0.532496
vt 0.625000 0.500000
vt 0.625000 0.500000
vt 0.617731 0.507269
vt 0.573004 0.551996
vt 0.573035 0.532067
vt 0.593468 0.531532
vt 0.592933 0.551965
vt 0.573121 0.500000
vt 0.592504 0.500000
vt 0.593009 0.500000
vt 0.593479 0.500000
vt 0.573121 0.500000
vt 0.573347 0.718103
vt 0.593561 0.718561
vt 0.593103 0.698347
vt 0.573260 0.750000
vt 0.592463 0.750000
vt 0.625000 0.717463
vt 0.625000 0.698260
vt 0.617671 0.742671
vt 0.593026 0.750000
vt 0.593551 0.750000
vt 0.573261 0.750000
vt 0.625000 0.750000
vt 0.625000 0.750000
vt 0.625000 0.698261
vt 0.625000 0.718551
vt 0.625000 0.718026
vt 0.406897 0.698347
vt 0.406439 0.718561
vt 0.426653 0.718103
vt 0.375000 0.698260
vt 0.375000 0.717463
vt 0.407537 0.750000
vt 0.426740 0.750000
vt 0.382329 0.742671
vt 0.375000 0.698207
vt 0.375000 0.718026
vt 0.375000 0.718551
vt 0.375000 0.698261
vt 0.375000 0.750000
vt 0.375000 0.750000
vt 0.426739 0.750000
vt 0.406449 0.750000
vt 0.406974 0.750000
vn 0.0000 -1.0000 0.0077
vn 0.0000 0.0000 -1.0000
vn -1.0000 0.0000 0.0077
vn 1.0000 0.0000 0.0077
vn -0.2046 0.9553 0.2135
vn -0.5489 0.8136 0.1920
vn -0.1811 0.8117 0.5553
vn -0.4908 0.7134 0.5001
vn -0.9553 0.2046 0.2135
vn -0.8117 0.1811 0.5553
vn -0.8136 0.5489 0.1920
vn -0.7134 0.4908 0.5001
vn -0.2043 0.2043 0.9573
vn -0.1810 0.5474 0.8171
vn -0.5474 0.1810 0.8171
vn -0.4904 0.4904 0.7204
vn 0.2046 0.9553 0.2135
vn 0.1811 0.8117 0.5553
vn 0.5489 0.8136 0.1920
vn 0.4908 0.7134 0.5001
vn 0.2043 0.2043 0.9573
vn 0.5474 0.1810 0.8171
vn 0.1810 0.5474 0.8171
vn 0.4904 0.4904 0.7204
vn 0.9553 0.2046 0.2135
vn 0.8136 0.5489 0.1920
vn 0.8117 0.1811 0.5553
vn 0.7134 0.4908 0.5001
vn -0.2053 -0.9588 -0.1963
vn -0.5510 -0.8167 -0.1716
vn -0.1826 -0.8186 -0.5445
vn -0.4954 -0.7200 -0.4860
vn -0.9588 -0.2053 -0.1963
vn -0.8186 -0.1826 -0.5445
vn -0.8167 -0.5510 -0.1716
vn -0.7200 -0.4954 -0.4860
vn -0.2056 -0.2056 -0.9568
vn -0.1827 -0.5525 -0.8133
vn -0.5525 -0.1827 -0.8133
vn -0.4958 -0.4958 -0.7130
vn -0.2053 0.9588 -0.1963
vn -0.1826 0.8186 -0.5445
vn -0.5510 0.8167 -0.1716
vn -0.4954 0.7200 -0.4860
vn -0.2056 0.2056 -0.9568
vn -0.5525 0.1827 -0.8133
vn -0.1827 0.5525 -0.8133
vn -0.4958 0.4958 -0.7130
vn -0.9588 0.2053 -0.1963
vn -0.8167 0.5510 -0.1716
vn -0.8186 0.1826 -0.5445
vn -0.7200 0.4954 -0.4860
vn 0.2046 -0.9553 0.2135
vn 0.5489 -0.8136 0.1920
vn 0.1811 -0.8117 0.5553
vn 0.4908 -0.7134 0.5001
vn 0.9553 -0.2046 0.2135
vn 0.8117 -0.1811 0.5553
vn 0.8136 -0.5489 0.1920
vn 0.7134 -0.4908 0.5001
vn 0.2043 -0.2043 0.9573
vn 0.1810 -0.5474 0.8171
vn 0.5474 -0.1810 0.8171
vn 0.4904 -0.4904 0.7204
vn -0.2046 -0.9553 0.2135
vn -0.1811 -0.8117 0.5553
vn -0.5489 -0.8136 0.1920
vn -0.4908 -0.7134 0.5001
vn -0.2043 -0.2043 0.9573
vn -0.5474 -0.1810 0.8171
vn -0.1810 -0.5474 0.8171
vn -0.4904 -0.4904 0.7204
vn -0.9553 -0.2046 0.2135
vn -0.8136 -0.5489 0.1920
vn -0.8117 -0.1811 0.5553
vn -0.7134 -0.4908 0.5001
vn 0.2056 -0.2056 -0.9568
vn 0.5525 -0.1827 -0.8133
vn 0.1827 -0.5525 -0.8133
vn 0.4958 -0.4958 -0.7130
vn 0.9588 -0.2053 -0.1963
vn 0.8167 -0.5510 -0.1716
vn 0.8186 -0.1826 -0.5445
vn 0.7200 -0.4954 -0.4860
vn 0.2053 -0.9588 -0.1963
vn 0.1826 -0.8186 -0.5445
vn 0.5510 -0.8167 -0.1716
vn 0.4954 -0.7200 -0.4860
vn 0.2056 0.2056 -0.9568
vn 0.1827 0.5525 -0.8133
vn 0.5525 0.1827 -0.8133
vn 0.4958 0.4958 -0.7130
vn 0.2053 0.9588 -0.1963
vn 0.5510 0.8167 -0.1716
vn 0.1826 0.8186 -0.5445
vn 0.4954 0.7200 -0.4860
vn 0.9588 0.2053 -0.1963
vn 0.8186 0.1826 -0.5445
vn 0.8167 0.5510 -0.1716
vn 0.7200 0.4954 -0.4860
vn 0.0000 -0.1954 -0.9807
vn -0.0000 -0.5575 -0.8301
vn -0.0000 -0.8344 -0.5511
vn -0.0000 -0.9822 -0.1878
vn 0.0000 0.1954 -0.9807
vn 0.0000 0.5575 -0.8301
vn 0.0000 0.8344 -0.5511
vn 0.0000 0.9822 -0.1878
vn -0.9822 0.0000 -0.1878
vn -0.8344 0.0000 -0.5511
vn -0.5575 0.0000 -0.8301
vn -0.1954 0.0000 -0.9807
vn -0.1951 -0.9807 0.0091
vn -0.5555 -0.8314 0.0107
vn -0.8314 -0.5555 0.0107
vn -0.9807 -0.1951 0.0091
vn 0.1951 -0.9807 0.0091
vn 0.5555 -0.8314 0.0107
vn 0.8314 -0.5555 0.0107
vn 0.9807 -0.1951 0.0091
vn 0.9807 0.1951 0.0091
vn 0.8314 0.5555 0.0107
vn 0.5555 0.8314 0.0107
vn 0.1951 0.9807 0.0091
vn -0.9807 0.1951 0.0091
vn -0.8314 0.5555 0.0107
vn -0.5555 0.8314 0.0107
vn -0.1951 0.9807 0.0091
vn 0.1948 0.0000 0.9808
vn 0.5536 0.0000 0.8328
vn 0.8285 0.0000 0.5600
vn 0.9793 0.0000 0.2024
vn -0.1948 0.0000 0.9808
vn -0.5536 0.0000 0.8328
vn -0.8285 0.0000 0.5600
vn -0.9793 0.0000 0.2024
vn 0.0000 0.9793 0.2024
vn 0.0000 0.8285 0.5600
vn 0.0000 0.5536 0.8328
vn 0.0000 0.1948 0.9808
vn 0.9822 0.0000 -0.1878
vn 0.8344 -0.0000 -0.5511
vn 0.5575 0.0000 -0.8301
vn 0.1954 0.0000 -0.9807
vn 0.0000 -0.9793 0.2024
vn 0.0000 -0.8285 0.5600
vn 0.0000 -0.5536 0.8328
vn 0.0000 -0.1948 0.9808
vn 0.0000 1.0000 0.0077
usemtl Material
s off
f 39/1/1 117/2/1 77/3/1 96/4/1
f 59/5/2 134/6/2 115/7/2 41/8/2
f 60/9/3 40/10/3 98/11/3 2/12/3
f 116/13/4 136/14/4 22/15/4 78/16/4
f 1/17/5 4/18/5 7/19/5 6/20/5
f 4/18/6 5/21/6 8/22/6 7/19/6
f 6/20/7 7/19/7 19/23/7 16/24/7
f 7/19/8 8/22/8 9/25/8 19/23/8
f 2/12/9 10/26/9 13/27/9 12/28/9
f 10/26/10 11/29/10 14/30/10 13/27/10
f 12/28/11 13/27/11 8/22/11 5/21/11
f 13/27/12 14/30/12 9/25/12 8/22/12
f 3/31/13 15/32/13 18/33/13 17/34/13
f 15/32/14 16/24/14 19/23/14 18/33/14
f 17/34/15 18/33/15 14/30/15 11/29/15
f 18/33/16 19/23/16 9/25/16 14/30/16
f 20/35/17 23/36/17 26/37/17 25/38/17
f 23/36/18 24/39/18 27/40/18 26/37/18
f 25/38/19 26/37/19 38/41/19 35/42/19
f 26/37/20 27/40/20 28/43/20 38/41/20
f 21/44/21 29/45/21 32/46/21 31/47/21
f 29/45/22 30/48/22 33/49/22 32/46/22
f 31/47/23 32/46/23 27/40/23 24/39/23
f 32/46/24 33/49/24 28/43/24 27/40/24
f 22/15/25 34/50/25 37/51/25 36/52/25
f 34/50/26 35/42/26 38/41/26 37/51/26
f 36/52/27 37/51/27 33/49/27 30/48/27
f 37/51/28 38/41/28 28/43/28 33/49/28
f 39/1/29 42/53/29 45/54/29 44/55/29
f 42/53/30 43/56/30 46/57/30 45/54/30
f 44/55/31 45/54/31 57/58/31 54/59/31
f 45/54/32 46/57/32 47/60/32 57/58/32
f 40/10/33 48/61/33 51/62/33 50/63/33
f 48/61/34 49/64/34 52/65/34 51/62/34
f 50/63/35 51/62/35 46/57/35 43/56/35
f 51/62/36 52/65/36 47/60/36 46/57/36
f 41/8/37 53/66/37 56/67/37 55/68/37
f 53/66/38 54/59/38 57/58/38 56/67/38
f 55/68/39 56/67/39 52/65/39 49/64/39
f 56/67/40 57/58/40 47/60/40 52/65/40
f 58/69/41 61/70/41 64/71/41 63/72/41
f 61/70/42 62/73/42 65/74/42 64/71/42
f 63/72/43 64/71/43 76/75/43 73/76/43
f 64/71/44 65/74/44 66/77/44 76/75/44
f 59/5/45 67/78/45 70/79/45 69/80/45
f 67/78/46 68/81/46 71/82/46 70/79/46
f 69/80/47 70/79/47 65/74/47 62/73/47
f 70/79/48 71/82/48 66/77/48 65/74/48
f 60/9/49 72/83/49 75/84/49 74/85/49
f 72/83/50 73/76/50 76/75/50 75/84/50
f 74/85/51 75/84/51 71/82/51 68/81/51
f 75/84/52 76/75/52 66/77/52 71/82/52
f 77/3/53 80/86/53 83/87/53 82/88/53
f 80/86/54 81/89/54 84/90/54 83/87/54
f 82/88/55 83/87/55 95/91/55 92/92/55
f 83/87/56 84/90/56 85/93/56 95/91/56
f 78/16/57 86/94/57 89/95/57 88/96/57
f 86/94/58 87/97/58 90/98/58 89/95/58
f 88/96/59 89/95/59 84/90/59 81/89/59
f 89/95/60 90/98/60 85/93/60 84/90/60
f 79/99/61 91/100/61 94/101/61 93/102/61
f 91/100/62 92/92/62 95/91/62 94/101/62
f 93/102/63 94/101/63 90/98/63 87/97/63
f 94/101/64 95/91/64 85/93/64 90/98/64
f 96/4/65 99/103/65 102/104/65 101/105/65
f 99/103/66 100/106/66 103/107/66 102/104/66
f 101/105/67 102/104/67 114/108/67 111/109/67
f 102/104/68 103/107/68 104/110/68 114/108/68
f 97/111/69 105/112/69 108/113/69 107/114/69
f 105/112/70 106/115/70 109/116/70 108/113/70
f 107/114/71 108/113/71 103/107/71 100/106/71
f 108/113/72 109/116/72 104/110/72 103/107/72
f 98/11/73 110/117/73 113/118/73 112/119/73
f 110/117/74 111/109/74 114/108/74 113/118/74
f 112/119/75 113/118/75 109/116/75 106/115/75
f 113/118/76 114/108/76 104/110/76 109/116/76
f 115/7/77 118/120/77 121/121/77 120/122/77
f 118/120/78 119/123/78 122/124/78 121/121/78
f 120/122/79 121/121/79 133/125/79 130/126/79
f 121/121/80 122/124/80 123/127/80 133/125/80
f 116/13/81 124/128/81 127/129/81 126/130/81
f 124/128/82 125/131/82 128/132/82 127/129/82
f 126/130/83 127/129/83 122/124/83 119/123/83
f 127/129/84 128/132/84 123/127/84 122/124/84
f 117/2/85 129/133/85 132/134/85 131/135/85
f 129/133/86 130/126/86 133/125/86 132/134/86
f 131/135/87 132/134/87 128/132/87 125/131/87
f 132/134/88 133/125/88 123/127/88 128/132/88
f 134/6/89 137/136/89 140/137/89 139/138/89
f 137/136/90 138/139/90 141/140/90 140/137/90
f 139/138/91 140/137/91 152/141/91 149/142/91
f 140/137/92 141/140/92 142/143/92 152/141/92
f 135/144/93 143/145/93 146/146/93 145/147/93
f 143/145/94 144/148/94 147/149/94 146/146/94
f 145/147/95 146/146/95 141/140/95 138/139/95
f 146/146/96 147/149/96 142/143/96 141/140/96
f 136/14/97 148/150/97 151/151/97 150/152/97
f 148/150/98 149/142/98 152/141/98 151/151/98
f 150/152/99 151/151/99 147/149/99 144/148/99
f 151/151/100 152/141/100 142/143/100 147/149/100
f 41/8/101 115/7/101 120/122/101 53/66/101
f 53/66/102 120/122/102 130/126/102 54/59/102
f 54/59/103 130/126/103 129/133/103 44/55/103
f 44/55/104 129/133/104 117/2/104 39/1/104
f 134/6/105 59/5/105 69/80/105 137/136/105
f 137/136/106 69/80/106 62/73/106 138/139/106
f 138/139/107 62/73/107 61/70/107 145/147/107
f 145/147/108 61/70/108 58/69/108 135/144/108
f 40/10/109 60/9/109 74/85/109 48/61/109
f 48/61/110 74/85/110 68/81/110 49/64/110
f 49/64/111 68/81/111 67/78/111 55/68/111
f 55/68/112 67/78/112 59/5/112 41/8/112
f 39/1/113 96/4/113 101/105/113 42/53/113
f 42/53/114 101/105/114 111/109/114 43/56/114
f 43/56/115 111/109/115 110/117/115 50/63/115
f 50/63/116 110/117/116 98/11/116 40/10/116
f 77/3/117 117/2/117 131/135/117 80/86/117
f 80/86/118 131/135/118 125/131/118 81/89/118
f 81/89/119 125/131/119 124/128/119 88/96/119
f 88/96/120 124/128/120 116/13/120 78/16/120
f 22/15/121 136/14/121 150/152/121 34/50/121
f 34/50/122 150/152/122 144/148/122 35/42/122
f 35/42/123 144/148/123 143/145/123 25/38/123
f 25/38/124 143/145/124 135/144/124 20/35/124
f 60/9/125 2/12/125 12/28/125 72/83/125
f 72/83/126 12/28/126 5/21/126 73/76/126
f 73/76/127 5/21/127 4/18/127 63/72/127
f 63/72/128 4/18/128 1/17/128 58/69/128
f 21/44/129 79/99/129 93/102/129 29/45/129
f 29/45/130 93/102/130 87/97/130 30/48/130
f 30/48/131 87/97/131 86/94/131 36/52/131
f 36/52/132 86/94/132 78/16/132 22/15/132
f 97/111/133 3/31/133 17/34/133 105/112/133
f 105/112/134 17/34/134 11/29/134 106/115/134
f 106/115/135 11/29/135 10/26/135 112/119/135
f 112/119/136 10/26/136 2/12/136 98/11/136
f 20/35/137 1/17/137 6/20/137 23/36/137
f 23/36/138 6/20/138 16/24/138 24/39/138
f 24/39/139 16/24/139 15/32/139 31/47/139
f 31/47/140 15/32/140 3/31/140 21/44/140
f 136/14/141 116/13/141 126/130/141 148/150/141
f 148/150/142 126/130/142 119/123/142 149/142/142
f 149/142/143 119/123/143 118/120/143 139/138/143
f 139/138/144 118/120/144 115/7/144 134/6/144
f 96/4/145 77/3/145 82/88/145 99/103/145
f 99/103/146 82/88/146 92/92/146 100/106/146
f 100/106/147 92/92/147 91/100/147 107/114/147
f 107/114/148 91/100/148 79/99/148 97/111/148
f 135/144/149 58/69/149 1/17/149 20/35/149
